<svg xmlns="http://www.w3.org/2000/svg" width="269" height="269" viewBox="0 0 269 269">
<g>
<path d="M 162.85 212.42 C159.93,213.64 152.52,214.01 124.36,214.35 C79.43,214.89 56.57,214.09 52.50,211.85 C48.80,209.80 45.81,206.58 43.37,202.00 C41.61,198.71 41.48,194.87 41.22,139.22 C41.03,99.31 41.29,78.64 42.01,75.96 C43.33,71.05 48.05,65.52 53.12,62.94 C56.74,61.09 59.67,60.98 109.22,60.75 L 161.50 60.50 L 165.96 63.00 C168.41,64.38 171.78,67.45 173.46,69.83 L 176.50 74.17 L 176.50 105.50 L 171.89 105.80 L 167.28 106.10 L 166.78 91.46 C166.30,77.25 166.21,76.75 163.62,74.17 L 160.96 71.50 L 113.23 71.18 C86.98,71.00 63.53,71.14 61.13,71.50 C58.31,71.93 55.91,73.07 54.38,74.73 L 52.00 77.29 L 52.00 197.52 L 54.53 200.25 C55.92,201.75 58.06,203.22 59.28,203.53 C60.50,203.83 83.41,203.94 110.19,203.79 L 158.87 203.50 L 161.94 200.56 C164.77,197.85 165.00,197.11 165.00,190.81 L 165.00 184.00 L 160.97 184.00 C153.45,184.00 145.57,178.99 141.96,171.91 C140.21,168.49 140.00,165.96 140.00,148.49 C140.00,127.67 140.39,125.63 145.37,120.15 C150.34,114.69 151.36,114.52 181.64,114.18 C212.56,113.83 215.94,114.25 221.50,119.14 C226.84,123.83 227.59,128.14 227.00,151.17 L 226.50 170.84 L 223.49 175.12 C218.53,182.16 215.48,183.36 201.34,183.83 L 189.08 184.24 L 183.23 190.87 C180.01,194.52 175.99,199.52 174.29,202.00 C170.30,207.84 167.31,210.55 162.85,212.42 ZM 148.56 100.77 C146.27,102.58 143.95,102.70 109.81,102.87 C70.96,103.05 68.84,102.82 68.17,98.17 L 68.16 98.09 C68.01,97.02 67.89,96.17 68.18,95.50 C69.26,93.00 76.13,93.00 108.75,93.00 L 109.42 93.00 C138.56,93.00 148.91,93.31 149.80,94.20 C151.70,96.10 151.21,98.69 148.56,100.77 ZM 127.78 124.44 C125.90,125.76 121.39,126.00 98.78,126.00 C73.33,126.00 71.90,125.90 70.00,124.00 C67.74,121.74 67.42,118.98 69.20,117.20 C70.91,115.49 127.09,115.49 128.80,117.20 C130.71,119.11 130.20,122.75 127.78,124.44 ZM 128.17 146.35 C126.56,147.80 123.00,148.00 98.37,148.00 C77.95,148.00 70.08,147.68 69.20,146.80 C67.54,145.14 67.70,142.44 69.57,140.57 C70.93,139.22 75.04,139.00 99.37,139.00 C119.99,139.00 127.92,139.32 128.80,140.20 C130.53,141.93 130.28,144.44 128.17,146.35 ZM 114.37 169.14 C112.84,170.84 110.88,171.00 91.92,171.00 C74.36,171.00 70.90,170.76 69.57,169.43 C67.70,167.56 67.54,164.86 69.20,163.20 C70.54,161.86 111.66,161.45 113.57,162.77 C115.70,164.22 116.08,167.25 114.37,169.14 Z" fill="rgb(10,12,8)"/>
<path d="M 0.00 134.50 L 0.00 0.00 L 134.50 0.00 L 269.00 0.00 L 269.00 134.50 L 269.00 269.00 L 134.50 269.00 L 0.00 269.00 L 0.00 134.50 ZM 162.85 212.42 C167.31,210.55 170.30,207.84 174.29,202.00 C175.99,199.52 180.01,194.52 183.23,190.87 L 189.08 184.24 L 201.34 183.83 C215.48,183.36 218.53,182.16 223.49,175.12 L 226.50 170.84 L 227.00 151.17 C227.59,128.14 226.84,123.83 221.50,119.14 C215.94,114.25 212.56,113.83 181.64,114.18 C151.36,114.52 150.34,114.69 145.37,120.15 C140.39,125.63 140.00,127.67 140.00,148.49 C140.00,165.96 140.21,168.49 141.96,171.91 C145.57,178.99 153.45,184.00 160.97,184.00 L 165.00 184.00 L 165.00 190.81 C165.00,197.11 164.77,197.85 161.94,200.56 L 158.87 203.50 L 110.19 203.79 C83.41,203.94 60.50,203.83 59.28,203.53 C58.06,203.22 55.92,201.75 54.53,200.25 L 52.00 197.52 L 52.00 137.41 L 52.00 77.29 L 54.38 74.73 C55.91,73.07 58.31,71.93 61.13,71.50 C63.53,71.14 86.98,71.00 113.23,71.18 L 160.96 71.50 L 163.62 74.17 C166.21,76.75 166.30,77.25 166.78,91.46 L 167.28 106.10 L 171.89 105.80 L 176.50 105.50 L 176.50 89.83 L 176.50 74.17 L 173.46 69.83 C171.78,67.45 168.41,64.38 165.96,63.00 L 161.50 60.50 L 109.22 60.75 C59.67,60.98 56.74,61.09 53.12,62.94 C48.05,65.52 43.33,71.05 42.01,75.96 C41.29,78.64 41.03,99.31 41.22,139.22 C41.48,194.87 41.61,198.71 43.37,202.00 C45.81,206.58 48.80,209.80 52.50,211.85 C56.57,214.09 79.43,214.89 124.36,214.35 C152.52,214.01 159.93,213.64 162.85,212.42 ZM 114.37 169.14 C116.08,167.25 115.70,164.22 113.57,162.77 C111.66,161.45 70.54,161.86 69.20,163.20 C67.54,164.86 67.70,167.56 69.57,169.43 C70.90,170.76 74.36,171.00 91.92,171.00 C110.88,171.00 112.84,170.84 114.37,169.14 ZM 128.17 146.35 C130.28,144.44 130.53,141.93 128.80,140.20 C127.92,139.32 119.99,139.00 99.37,139.00 C75.04,139.00 70.93,139.22 69.57,140.57 C67.70,142.44 67.54,145.14 69.20,146.80 C70.08,147.68 77.95,148.00 98.37,148.00 C123.00,148.00 126.56,147.80 128.17,146.35 ZM 127.78 124.44 C130.20,122.75 130.71,119.11 128.80,117.20 C127.09,115.49 70.91,115.49 69.20,117.20 C67.42,118.98 67.74,121.74 70.00,124.00 C71.90,125.90 73.33,126.00 98.78,126.00 C121.39,126.00 125.90,125.76 127.78,124.44 ZM 148.56 100.77 C151.21,98.69 151.70,96.10 149.80,94.20 C148.91,93.31 138.56,93.00 109.42,93.00 C67.21,93.00 67.43,92.97 68.17,98.17 C68.84,102.82 70.96,103.05 109.81,102.87 C143.95,102.70 146.27,102.58 148.56,100.77 Z" fill="rgb(217,217,214)"/>
</g>
</svg>